<svg xmlns="http://www.w3.org/2000/svg" xmlns:xlink="http://www.w3.org/1999/xlink" width="500" zoomAndPan="magnify" viewBox="0 0 375 374.999991" height="500" preserveAspectRatio="xMidYMid meet" version="1.0"><defs><clipPath id="eb8a671f70"><path d="M 64 173 L 308 173 L 308 288.808594 L 64 288.808594 Z M 64 173 " clip-rule="nonzero"/></clipPath><clipPath id="43bdbf9f8c"><path d="M 79 152 L 311.21875 152 L 311.21875 273 L 79 273 Z M 79 152 " clip-rule="nonzero"/></clipPath><clipPath id="ece929b599"><path d="M 114 282 L 155 282 L 155 288.808594 L 114 288.808594 Z M 114 282 " clip-rule="nonzero"/></clipPath></defs><path fill="#e09145" d="M 201.230469 194.679688 L 203.492188 196.609375 C 204.707031 197.742188 205.9375 198.847656 207.1875 199.921875 C 209.09375 198.191406 211.441406 196.316406 214.238281 194.539062 C 220.351562 190.648438 229.566406 186.679688 241.542969 186.867188 C 241.953125 186.875 242.140625 186.367188 241.828125 186.101562 C 240.910156 185.320312 240.007812 184.527344 239.125 183.722656 C 237.0625 181.839844 234.34375 180.820312 231.550781 180.941406 C 223.765625 181.277344 216.460938 183.578125 209.726562 187.828125 C 206.078125 190.132812 203.238281 192.640625 201.230469 194.679688 " fill-opacity="1" fill-rule="nonzero"/><path fill="#e09145" d="M 76.289062 171.828125 C 84.925781 166.207031 94.953125 161.300781 106.128906 157.234375 C 120.035156 152.175781 136.179688 146.964844 151.847656 149.203125 C 162.363281 150.707031 169.203125 156.480469 174.933594 163.296875 C 176.980469 160.894531 180.769531 157.003906 186.296875 153.484375 C 191.183594 150.375 198.058594 147.214844 206.738281 146.167969 C 206.683594 146.074219 206.625 145.984375 206.570312 145.890625 L 206.542969 145.90625 C 206.304688 145.503906 206.066406 145.097656 205.828125 144.695312 C 200.222656 135.609375 196.875 129.101562 196.875 129.101562 C 195.472656 126.613281 194.070312 124.121094 192.664062 121.640625 C 190.910156 118.558594 187.804688 116.480469 184.285156 116.050781 C 174.511719 114.84375 155.460938 113.894531 154.253906 124.5625 C 153.105469 134.683594 138.503906 133.640625 131.316406 132.851562 C 118.488281 131.441406 113.125 122.210938 110.304688 110.199219 C 109.421875 106.460938 111.210938 102.515625 114.710938 100.925781 C 117.726562 99.558594 121.730469 100.042969 125.878906 107.140625 C 125.90625 107.1875 125.929688 107.234375 125.957031 107.28125 C 126.765625 108.691406 127.453125 110.167969 128.039062 111.683594 C 129.792969 116.234375 132.859375 119.5625 136.636719 121.980469 C 139.660156 123.914062 143.140625 125.269531 146.769531 126.195312 C 148.03125 126.574219 149.234375 126.851562 150.261719 126.949219 L 150.699219 126.40625 C 151.066406 125.757812 151.292969 125.039062 151.382812 124.238281 C 151.578125 122.535156 152.113281 121 152.980469 119.636719 L 151.972656 119.222656 L 151.992188 119.210938 C 149.886719 118.484375 147.824219 117.648438 145.871094 116.640625 C 144.472656 115.917969 143.332031 115.183594 142.371094 114.414062 C 138.914062 111.640625 137.765625 108.40625 135.394531 103.78125 C 134.714844 102.449219 134.011719 101.171875 133.265625 99.960938 C 130.519531 95.511719 127.140625 92.035156 121.664062 90.597656 C 117.246094 89.441406 93.773438 86.339844 77.417969 144.871094 C 76.902344 146.726562 76.070312 148.480469 74.972656 150.0625 C 74.21875 151.148438 73.261719 152.585938 72.238281 154.285156 C 69.757812 158.382812 70.007812 163.566406 72.835938 167.433594 C 73.808594 168.757812 74.960938 170.242188 76.289062 171.828125 " fill-opacity="1" fill-rule="nonzero"/><path fill="#e09145" d="M 212.367188 160.945312 C 206.515625 161.894531 200.964844 164.015625 195.753906 167.304688 C 190.34375 170.722656 186.703125 174.589844 184.9375 176.703125 C 186.460938 178.597656 188.128906 180.609375 189.917969 182.679688 C 192.101562 180.289062 195.546875 177.015625 200.265625 174.011719 C 205.539062 170.65625 213.121094 167.238281 222.789062 166.488281 C 223.132812 166.457031 223.316406 166.066406 223.109375 165.789062 C 222.960938 165.589844 222.816406 165.394531 222.671875 165.199219 C 220.292969 161.964844 216.324219 160.300781 212.367188 160.945312 " fill-opacity="1" fill-rule="nonzero"/><path fill="#e09145" d="M 220.824219 170.996094 C 214.375 171.820312 208.277344 174.042969 202.589844 177.664062 C 198.019531 180.574219 194.746094 183.769531 192.800781 185.945312 C 194.5 187.832031 196.289062 189.738281 198.144531 191.632812 C 200.3125 189.429688 203.347656 186.761719 207.25 184.277344 C 212.765625 180.765625 220.800781 177.191406 231.105469 176.664062 C 231.472656 176.644531 231.65625 176.210938 231.40625 175.9375 C 230.988281 175.46875 230.574219 175.003906 230.164062 174.539062 C 227.835938 171.882812 224.332031 170.550781 220.824219 170.996094 " fill-opacity="1" fill-rule="nonzero"/><path fill="#e09145" d="M 188.773438 157.042969 C 182.859375 160.769531 179.066406 165.039062 177.511719 166.976562 C 178.707031 168.640625 180.292969 170.78125 182.195312 173.238281 C 184.300781 170.820312 187.992188 167.113281 193.28125 163.746094 C 198.550781 160.394531 206.125 156.980469 215.78125 156.222656 C 216.109375 156.199219 216.296875 155.835938 216.121094 155.558594 C 213.839844 151.957031 209.632812 150 205.421875 150.675781 C 199.558594 151.621094 193.992188 153.746094 188.773438 157.042969 " fill-opacity="1" fill-rule="nonzero"/><g clip-path="url(#eb8a671f70)"><path fill="#e09145" d="M 293.886719 273.710938 C 290.792969 274.664062 287.507812 275.585938 284.035156 276.375 C 280.5625 277.15625 276.910156 277.839844 273.097656 278.363281 C 269.28125 278.875 265.304688 279.203125 261.195312 279.289062 C 260.683594 279.300781 260.167969 279.308594 259.652344 279.320312 C 259.132812 279.328125 258.613281 279.308594 258.089844 279.300781 C 257.046875 279.277344 256.003906 279.285156 254.933594 279.203125 C 254.398438 279.171875 253.863281 279.140625 253.324219 279.109375 L 252.519531 279.0625 L 251.734375 278.980469 C 251.210938 278.929688 250.6875 278.878906 250.160156 278.824219 L 249.371094 278.746094 L 249.273438 278.734375 L 249.136719 278.714844 L 248.539062 278.632812 C 246.421875 278.332031 244.269531 278.0625 242.109375 277.722656 C 241.03125 277.539062 239.945312 277.355469 238.855469 277.171875 C 237.769531 276.984375 236.671875 276.816406 235.578125 276.585938 C 234.488281 276.363281 233.390625 276.144531 232.285156 275.921875 C 231.734375 275.808594 231.179688 275.707031 230.628906 275.585938 C 230.078125 275.457031 229.527344 275.328125 228.976562 275.199219 C 227.871094 274.941406 226.761719 274.683594 225.652344 274.425781 C 224.539062 274.160156 223.4375 273.84375 222.320312 273.554688 C 217.867188 272.394531 213.417969 270.972656 208.976562 269.394531 C 207.871094 268.984375 206.761719 268.574219 205.652344 268.160156 C 204.550781 267.734375 203.457031 267.269531 202.355469 266.824219 C 201.804688 266.59375 201.25 266.382812 200.707031 266.136719 L 199.070312 265.410156 C 197.984375 264.917969 196.882812 264.449219 195.8125 263.910156 C 194.738281 263.378906 193.648438 262.875 192.582031 262.320312 C 191.519531 261.757812 190.453125 261.199219 189.390625 260.636719 L 186.246094 258.847656 C 185.203125 258.234375 184.179688 257.59375 183.144531 256.964844 C 179.050781 254.390625 175.09375 251.550781 171.378906 248.414062 C 167.65625 245.285156 164.15625 241.886719 161.019531 238.101562 C 160.234375 237.15625 159.476562 236.183594 158.742188 235.164062 C 158.375 234.65625 158.015625 234.140625 157.660156 233.585938 C 157.570312 233.445312 157.484375 233.316406 157.375 233.140625 L 157.230469 232.894531 C 157.238281 232.910156 157.128906 232.726562 157.234375 232.910156 L 157.199219 232.855469 L 156.78125 232.238281 C 155.574219 230.511719 154.21875 228.816406 152.804688 227.226562 C 149.96875 224.046875 146.855469 221.199219 143.539062 218.921875 C 140.226562 216.644531 136.714844 214.933594 133.179688 214.003906 C 132.738281 213.902344 132.296875 213.796875 131.855469 213.691406 C 131.628906 213.632812 131.4375 213.617188 131.234375 213.578125 L 130.632812 213.472656 L 130.335938 213.417969 L 129.953125 213.375 L 129.171875 213.285156 C 128.671875 213.222656 128.171875 213.167969 127.671875 213.105469 C 127.109375 213.039062 126.550781 212.96875 125.992188 212.902344 L 125.152344 212.796875 C 124.871094 212.761719 124.59375 212.726562 124.324219 212.667969 C 123.242188 212.457031 122.160156 212.25 121.089844 212.042969 C 120.546875 211.949219 120.035156 211.792969 119.515625 211.667969 C 118.992188 211.535156 118.472656 211.402344 117.960938 211.265625 C 117.441406 211.132812 116.925781 211.003906 116.414062 210.863281 C 115.914062 210.707031 115.414062 210.550781 114.917969 210.390625 C 113.925781 210.070312 112.925781 209.785156 111.964844 209.4375 C 111.007812 209.082031 110.058594 208.730469 109.113281 208.378906 C 108.160156 208.046875 107.257812 207.636719 106.351562 207.257812 C 105.445312 206.867188 104.535156 206.503906 103.660156 206.097656 C 102.792969 205.679688 101.929688 205.269531 101.074219 204.863281 C 100.648438 204.660156 100.21875 204.460938 99.800781 204.25 C 99.386719 204.03125 98.976562 203.816406 98.566406 203.601562 C 91.996094 200.167969 86.304688 196.410156 81.519531 192.660156 C 80.980469 192.230469 80.449219 191.804688 79.929688 191.382812 C 78.113281 189.949219 76.425781 188.527344 74.890625 187.117188 C 73.898438 186.273438 72.941406 185.265625 72.03125 184.363281 C 71.582031 183.910156 71.121094 183.453125 70.714844 183.027344 C 70.351562 182.621094 70 182.226562 69.65625 181.84375 C 69.3125 181.457031 68.980469 181.085938 68.65625 180.71875 C 68.574219 180.628906 68.492188 180.539062 68.414062 180.449219 L 68.296875 180.316406 L 68.265625 180.28125 L 68.109375 180.089844 L 68.035156 180 C 67.839844 179.753906 67.644531 179.511719 67.460938 179.265625 C 66.726562 178.285156 66.109375 177.304688 65.597656 176.359375 C 65.148438 175.523438 64.78125 174.722656 64.476562 173.96875 C 63.714844 179.332031 64.367188 184.703125 67.714844 189.195312 C 79.238281 204.660156 103.367188 219.105469 121.902344 220.902344 C 140.441406 222.695312 152.132812 242.816406 152.132812 242.816406 C 152.132812 242.816406 152.164062 242.863281 152.210938 242.953125 L 91.234375 242.953125 C 89.433594 242.953125 87.972656 244.414062 87.972656 246.21875 C 87.972656 248.019531 89.433594 249.476562 91.234375 249.476562 L 164.691406 249.476562 C 166.496094 249.476562 167.957031 250.9375 167.957031 252.738281 C 167.957031 254.539062 166.496094 256 164.691406 256 L 134.515625 256 C 132.714844 256 131.253906 257.460938 131.253906 259.261719 C 131.253906 261.0625 132.714844 262.523438 134.515625 262.523438 L 187.332031 262.523438 C 189.132812 262.523438 190.59375 263.984375 190.59375 265.785156 C 190.59375 267.589844 189.132812 269.046875 187.332031 269.046875 L 123.515625 269.046875 C 121.714844 269.046875 120.253906 270.507812 120.253906 272.308594 C 120.253906 274.109375 121.714844 275.570312 123.515625 275.570312 L 208.898438 275.570312 C 210.699219 275.570312 212.160156 277.03125 212.160156 278.832031 C 212.160156 280.203125 211.3125 281.375 210.113281 281.859375 C 210.375 281.9375 210.640625 282.015625 210.902344 282.09375 L 169.15625 282.09375 C 167.355469 282.09375 165.894531 283.554688 165.894531 285.355469 C 165.894531 287.15625 167.355469 288.617188 169.15625 288.617188 L 251.515625 288.617188 C 251.746094 288.617188 251.96875 288.59375 252.1875 288.546875 C 265.230469 288.054688 278.828125 284.828125 290.207031 280.28125 C 297.871094 277.21875 303.695312 273.289062 307.25 268.546875 C 305.777344 269.273438 304.207031 269.96875 302.546875 270.625 C 299.871094 271.695312 296.976562 272.726562 293.886719 273.710938 " fill-opacity="1" fill-rule="nonzero"/></g><g clip-path="url(#43bdbf9f8c)"><path fill="#e09145" d="M 305.023438 239.738281 C 295.824219 226.082031 282.808594 215.890625 269.089844 206.886719 C 267.917969 208.730469 264.789062 213.027344 259.265625 216.324219 C 253.304688 219.878906 243.417969 222.84375 229.28125 217.972656 C 228.035156 217.542969 226.757812 217.054688 225.445312 216.496094 C 209.691406 209.820312 196.832031 196.613281 185.285156 183.335938 C 182.597656 180.246094 180.175781 176.957031 177.839844 173.773438 C 170.765625 164.160156 164.085938 155.078125 151.269531 153.25 C 136.535156 151.144531 120.964844 156.183594 107.527344 161.074219 C 96.859375 164.957031 87.28125 169.617188 79.019531 174.933594 C 81.042969 177.132812 83.386719 179.460938 86.066406 181.816406 C 86.492188 182.210938 86.925781 182.605469 87.378906 183.003906 C 87.699219 183.277344 88.027344 183.550781 88.359375 183.824219 C 91.003906 185.992188 94.015625 188.199219 97.359375 190.34375 C 97.621094 190.511719 97.890625 190.683594 98.15625 190.847656 L 98.246094 190.90625 C 98.882812 191.308594 99.535156 191.707031 100.199219 192.101562 C 100.246094 192.128906 100.292969 192.160156 100.34375 192.1875 C 100.546875 192.3125 100.753906 192.433594 100.960938 192.554688 C 101.796875 193.042969 102.648438 193.527344 103.519531 194.003906 C 103.886719 194.210938 104.253906 194.414062 104.625 194.621094 C 105 194.820312 105.382812 195.003906 105.765625 195.199219 C 106.53125 195.585938 107.304688 195.972656 108.082031 196.367188 C 108.867188 196.753906 109.679688 197.089844 110.484375 197.460938 C 111.296875 197.820312 112.105469 198.210938 112.945312 198.523438 C 113.785156 198.851562 114.625 199.1875 115.476562 199.523438 C 116.328125 199.851562 117.203125 200.117188 118.074219 200.421875 C 118.511719 200.570312 118.953125 200.722656 119.390625 200.871094 C 119.835938 201.003906 120.28125 201.121094 120.730469 201.246094 C 121.175781 201.375 121.625 201.5 122.078125 201.625 C 122.527344 201.746094 122.980469 201.898438 123.433594 201.980469 C 123.480469 201.992188 123.527344 202 123.566406 202.011719 L 153.527344 176.191406 L 163.636719 187.921875 L 141.933594 206.632812 C 144.335938 207.789062 146.628906 209.179688 148.785156 210.730469 C 148.898438 210.8125 149.011719 210.898438 149.125 210.984375 L 169.125 193.746094 L 179.234375 205.480469 L 160.324219 221.777344 C 161.515625 223.242188 162.648438 224.757812 163.730469 226.378906 C 163.90625 226.640625 164.074219 226.902344 164.261719 227.195312 L 164.339844 227.324219 C 164.488281 227.566406 164.414062 227.445312 164.457031 227.527344 L 164.53125 227.652344 C 164.570312 227.722656 164.640625 227.835938 164.707031 227.941406 C 164.960938 228.359375 165.25 228.796875 165.550781 229.230469 C 166.148438 230.097656 166.796875 230.964844 167.472656 231.816406 C 170.1875 235.238281 173.347656 238.449219 176.742188 241.429688 C 180.136719 244.421875 183.800781 247.167969 187.628906 249.6875 C 188.59375 250.304688 189.550781 250.933594 190.527344 251.535156 L 193.484375 253.300781 C 194.488281 253.859375 195.496094 254.417969 196.5 254.972656 C 197.507812 255.523438 198.539062 256.027344 199.558594 256.558594 C 200.574219 257.097656 201.621094 257.570312 202.65625 258.0625 L 204.210938 258.796875 C 204.730469 259.042969 205.261719 259.257812 205.785156 259.492188 C 206.839844 259.941406 207.882812 260.410156 208.941406 260.84375 C 210.003906 261.265625 211.066406 261.6875 212.125 262.105469 C 216.390625 263.722656 220.683594 265.195312 225 266.417969 C 226.082031 266.722656 227.152344 267.054688 228.230469 267.335938 C 229.3125 267.609375 230.390625 267.886719 231.464844 268.160156 C 232 268.296875 232.539062 268.433594 233.070312 268.574219 C 233.609375 268.699219 234.148438 268.8125 234.6875 268.933594 C 235.761719 269.175781 236.832031 269.414062 237.902344 269.648438 C 238.964844 269.902344 240.039062 270.085938 241.101562 270.292969 C 242.167969 270.5 243.230469 270.703125 244.285156 270.902344 C 246.402344 271.285156 248.511719 271.589844 250.59375 271.933594 L 250.984375 271.996094 L 251.175781 272.027344 C 251.195312 272.03125 251.28125 272.042969 251.238281 272.039062 L 251.339844 272.050781 L 252.125 272.144531 C 252.652344 272.210938 253.171875 272.273438 253.695312 272.335938 L 254.476562 272.429688 L 255.234375 272.492188 C 255.742188 272.53125 256.242188 272.570312 256.746094 272.613281 C 257.746094 272.707031 258.765625 272.722656 259.773438 272.769531 C 260.277344 272.785156 260.777344 272.816406 261.28125 272.820312 C 261.78125 272.820312 262.28125 272.820312 262.78125 272.820312 C 266.765625 272.820312 270.65625 272.582031 274.402344 272.160156 C 278.148438 271.726562 281.75 271.128906 285.1875 270.433594 C 288.625 269.726562 291.882812 268.882812 294.960938 268.007812 C 298.03125 267.097656 300.917969 266.140625 303.589844 265.136719 C 304.648438 264.746094 305.667969 264.335938 306.648438 263.910156 C 309.371094 262.738281 311.195312 260.078125 311.226562 257.117188 L 311.226562 257.066406 C 311.269531 251.878906 309.300781 246.09375 305.023438 239.738281 " fill-opacity="1" fill-rule="nonzero"/></g><path fill="#e09145" d="M 216.5625 198.191406 C 214.21875 199.679688 212.222656 201.246094 210.566406 202.710938 C 215.722656 206.785156 221.1875 210.253906 227.042969 212.734375 C 238.703125 217.679688 248.78125 217.734375 257.003906 212.910156 C 259.925781 211.195312 262.09375 209.136719 263.566406 207.433594 C 264.78125 206.039062 264.441406 203.886719 262.875 202.90625 C 259.136719 200.558594 255.382812 198.273438 251.667969 196.007812 C 249.257812 194.535156 246.949219 192.976562 244.726562 191.339844 C 234.539062 190.46875 225.089844 192.757812 216.5625 198.191406 " fill-opacity="1" fill-rule="nonzero"/><path fill="#e09145" d="M 105.449219 269.046875 L 101.355469 269.046875 C 99.550781 269.046875 98.09375 270.507812 98.09375 272.308594 C 98.09375 274.109375 99.550781 275.570312 101.355469 275.570312 L 105.449219 275.570312 C 107.25 275.570312 108.710938 274.109375 108.710938 272.308594 C 108.710938 270.507812 107.25 269.046875 105.449219 269.046875 " fill-opacity="1" fill-rule="nonzero"/><g clip-path="url(#ece929b599)"><path fill="#e09145" d="M 151.089844 282.09375 L 117.746094 282.09375 C 115.941406 282.09375 114.480469 283.554688 114.480469 285.355469 C 114.480469 287.15625 115.941406 288.617188 117.746094 288.617188 L 151.089844 288.617188 C 152.890625 288.617188 154.355469 287.15625 154.355469 285.355469 C 154.355469 283.554688 152.890625 282.09375 151.089844 282.09375 " fill-opacity="1" fill-rule="nonzero"/></g></svg>